# xmcd
#
# Track frame offsets:
#  150
#  18240
#  40252
#  58928
#  73309
#  95407
#  114825
#  129551
#  151159
#  160270
#  178234
#  199002
#
# Disc length: 2890 seconds
#
# Revision: 0
# Processed by: cddbd v1.4b42PL1 Copyright (c) Steve Scherf et al.
# Submitted via: AltoMP3_Maker 3.0
#
DISCID=a10b480c
DTITLE=Radiohead - Amnesiac
DYEAR=1900
DGENRE=
TTITLE0=Pact Like Sardines In A Crushed Thin Box
TTITLE1=Pyramid Song
TTITLE2=Pulk Pull Revolving Doors
TTITLE3=You And Whose Army
TTITLE4=I Might Be Wrong
TTITLE5=Knives Out
TTITLE6=Morning Bell Amnesiac
TTITLE7=Dollars And Cents
TTITLE8=Hunting Bears
TTITLE9=Like Spining Plates
TTITLE10=Life In A Glass House
TTITLE11=Like Spining Plates (Backwards)
EXTD=
EXTT0=
EXTT1=
EXTT2=
EXTT3=
EXTT4=
EXTT5=
EXTT6=
EXTT7=
EXTT8=
EXTT9=
EXTT10=
EXTT11=
PLAYORDER=
